<svg id="레이어_1" data-name="레이어 1" xmlns="http://www.w3.org/2000/svg" viewBox="0 0 1002.83 940.42"><defs><style>.cls-1,.cls-2,.cls-3,.cls-4,.cls-5{fill:#54adfd;}.cls-1{opacity:0.3;}.cls-1,.cls-2,.cls-3,.cls-4{isolation:isolate;}.cls-2{opacity:0.5;}.cls-3{opacity:0.7;}.cls-4{opacity:0.9;}</style></defs><path id="패스_81-2" data-name="패스 81-2" class="cls-1" d="M1002.78,69.46h-363L458.25,383.84,639.76,698.23h363l181.51-314.39Z" transform="translate(-458.25 -69.46)"/><path id="패스_85-2" data-name="패스 85-2" class="cls-2" d="M1311.88,400.23H1013.47L864.27,658.66l149.2,258.43h298.41l149.2-258.43Z" transform="translate(-458.25 -69.46)"/><path id="패스_87-2" data-name="패스 87-2" class="cls-3" d="M1109.06,547.65H842.19L708.76,778.76l133.43,231.12h266.87l133.43-231.12Z" transform="translate(-458.25 -69.46)"/><path id="패스_86-2" data-name="패스 86-2" class="cls-4" d="M915.73,251H694.79L584.32,442.36,694.79,633.7H915.73L1026.2,442.36Z" transform="translate(-458.25 -69.46)"/><path id="패스_82-2" data-name="패스 82-2" class="cls-5" d="M796.7,850.11H986.83l95.06-164.66L986.83,520.8H796.7L701.63,685.45Z" transform="translate(-458.25 -69.46)"/></svg>