<svg id="레이어_1" data-name="레이어 1" xmlns="http://www.w3.org/2000/svg" viewBox="0 0 30.66 27.53"><defs><style>.cls-1{fill:#bebebe;}</style></defs><path id="패스_23" data-name="패스 23" class="cls-1" d="M949.54,541.07a2.23,2.23,0,0,1-.32-1.09,2.07,2.07,0,0,1,.26-1.09l3.9-7.13a2.1,2.1,0,0,1,1.29-1,2.12,2.12,0,0,1,.57-.08l8.25,0a2.18,2.18,0,0,1,.57.08,2.11,2.11,0,0,1,.54.22,2.27,2.27,0,0,1,.82.81l1.74,3a.94.94,0,0,0,.46.42,1,1,0,0,0,.61.05l2.52-.6a.94.94,0,0,0,.72-1,1,1,0,0,0-.14-.44l-3.15-5.34a3.21,3.21,0,0,0-1.21-1.19,3.8,3.8,0,0,0-.78-.33,3.48,3.48,0,0,0-.85-.11H953.17a3.32,3.32,0,0,0-.83.11,3,3,0,0,0-1.9,1.5l-5.72,10.51a3.22,3.22,0,0,0-.3.78,3.26,3.26,0,0,0-.08.82,3.34,3.34,0,0,0,.13.83,3.15,3.15,0,0,0,.35.77l1.16,1.94,5.14,8.54a3.34,3.34,0,0,0,2,1.5,2.92,2.92,0,0,0,.83.12l12.06.11a3.09,3.09,0,0,0,2.75-1.57l5.87-10.46a3.61,3.61,0,0,0,.31-.79,3.84,3.84,0,0,0,.09-.83,3.34,3.34,0,0,0-.13-.83,3.43,3.43,0,0,0-.34-.79l-.2-.33a2,2,0,0,0-.9-.79,2.16,2.16,0,0,0-.57-.14,2,2,0,0,0-.6,0l-21.2,5a1.06,1.06,0,0,1-.31,0,1,1,0,0,1-.75-.48Z" transform="translate(-944.34 -526.23)"/></svg>