<svg id="레이어_1" data-name="레이어 1" xmlns="http://www.w3.org/2000/svg" viewBox="0 0 329.38 59.81"><defs><style>.cls-1{fill:#54adfd;}</style></defs><g id="그룹_53" data-name="그룹 53"><rect id="사각형_118" data-name="사각형 118" class="cls-1" y="0.65" width="8" height="58.87" rx="0.78"/><rect id="사각형_119" data-name="사각형 119" class="cls-1" x="30.51" y="31.91" width="8" height="27.6" rx="0.78"/><rect id="사각형_120" data-name="사각형 120" class="cls-1" x="30.51" width="8" height="26.69" rx="0.78"/><rect id="사각형_121" data-name="사각형 121" class="cls-1" x="55.83" y="0.94" width="8" height="58.87" rx="0.78"/><rect id="사각형_122" data-name="사각형 122" class="cls-1" x="210.68" y="2.42" width="8" height="57.1" rx="0.78"/><rect id="사각형_123" data-name="사각형 123" class="cls-1" x="196.54" y="0.69" width="36.29" height="8" rx="0.78"/><rect id="사각형_124" data-name="사각형 124" class="cls-1" x="246.54" y="0.75" width="33.99" height="8" rx="0.78"/><rect id="사각형_125" data-name="사각형 125" class="cls-1" x="272.53" y="2.42" width="8" height="55" rx="0.78"/><rect id="사각형_126" data-name="사각형 126" class="cls-1" x="246.54" y="50.11" width="33.99" height="8" rx="0.78"/><rect id="사각형_127" data-name="사각형 127" class="cls-1" x="246.54" y="3.11" width="8" height="55" rx="0.78"/><rect id="사각형_128" data-name="사각형 128" class="cls-1" x="295.39" y="0.75" width="33.99" height="8" rx="0.78"/><rect id="사각형_129" data-name="사각형 129" class="cls-1" x="321.37" y="3.06" width="8" height="55" rx="0.78"/><rect id="사각형_130" data-name="사각형 130" class="cls-1" x="295.39" y="3.11" width="8" height="55" rx="0.78"/><rect id="사각형_131" data-name="사각형 131" class="cls-1" x="115.71" y="21.86" width="8" height="37.95" rx="0.78"/><rect id="사각형_132" data-name="사각형 132" class="cls-1" x="101.57" y="21.86" width="36.29" height="8" rx="0.78"/><rect id="사각형_133" data-name="사각형 133" class="cls-1" x="101.57" y="0.35" width="8" height="27.84" rx="0.78"/><rect id="사각형_134" data-name="사각형 134" class="cls-1" x="129.85" width="8" height="27.84" rx="0.78"/><rect id="사각형_135" data-name="사각형 135" class="cls-1" x="11.88" y="20.2" width="26.63" height="8" rx="0.78"/><rect id="사각형_136" data-name="사각형 136" class="cls-1" x="11.88" y="31.91" width="26.63" height="8" rx="0.78"/><rect id="사각형_137" data-name="사각형 137" class="cls-1" x="55.83" y="0.98" width="34.24" height="8" rx="0.78"/><rect id="사각형_138" data-name="사각형 138" class="cls-1" x="82.84" y="0.98" width="8" height="28.75" rx="0.78"/><rect id="사각형_139" data-name="사각형 139" class="cls-1" x="56.59" y="22.05" width="34.24" height="8" rx="0.78"/><rect id="사각형_140" data-name="사각형 140" class="cls-1" x="148.58" y="0.65" width="8" height="58.87" rx="0.78"/><rect id="사각형_141" data-name="사각형 141" class="cls-1" x="148.58" y="0.69" width="34.24" height="8" rx="0.78"/><rect id="사각형_142" data-name="사각형 142" class="cls-1" x="175.59" y="0.69" width="8" height="28.75" rx="0.78"/><rect id="사각형_143" data-name="사각형 143" class="cls-1" x="149.34" y="21.76" width="34.24" height="8" rx="0.78"/><rect id="사각형_144" data-name="사각형 144" class="cls-1" x="81.15" y="33.92" width="8" height="25.89" rx="0.78"/></g></svg>