<svg id="레이어_1" data-name="레이어 1" xmlns="http://www.w3.org/2000/svg" xmlns:xlink="http://www.w3.org/1999/xlink" viewBox="0 0 156.96 42.62"><defs><style>.cls-1{fill:url(#무제_그라디언트_33);}.cls-2{fill:#54adfd;}</style><linearGradient id="무제_그라디언트_33" x1="435.34" y1="559.21" x2="482.79" y2="559.21" gradientUnits="userSpaceOnUse"><stop offset="0" stop-color="#3be4ff"/><stop offset="1" stop-color="#5a9ffc"/></linearGradient></defs><path id="패스_23" data-name="패스 23" class="cls-1" d="M443.38,560.88a4.26,4.26,0,0,1-.36-.82,3.27,3.27,0,0,1-.13-.87,3.66,3.66,0,0,1,.08-.87,3.58,3.58,0,0,1,.32-.82l6-11a3.3,3.3,0,0,1,2.88-1.69l12.78,0a3.35,3.35,0,0,1,.89.12,3.65,3.65,0,0,1,.82.34,3.54,3.54,0,0,1,1.27,1.25l2.69,4.61a1.6,1.6,0,0,0,.72.64,1.83,1.83,0,0,0,.46.12,2,2,0,0,0,.49,0l3.9-.93a1.48,1.48,0,0,0,1-.86,1.67,1.67,0,0,0,.11-.66,1.52,1.52,0,0,0-.22-.68l-4.87-8.27a5.21,5.21,0,0,0-1.88-1.85,5.17,5.17,0,0,0-2.53-.68H449a4.74,4.74,0,0,0-1.3.17,4.8,4.8,0,0,0-2.94,2.33l-8.85,16.26a4.77,4.77,0,0,0-.45,1.21,4.89,4.89,0,0,0-.13,1.27,5,5,0,0,0,.2,1.27,5.69,5.69,0,0,0,.53,1.21l1.8,3,8,13.21a5.23,5.23,0,0,0,1.86,1.82,4.62,4.62,0,0,0,1.19.5,4.67,4.67,0,0,0,1.29.18l18.67.18a4.7,4.7,0,0,0,1.29-.16,4.65,4.65,0,0,0,1.18-.48,4.73,4.73,0,0,0,1.78-1.8l9.08-16.19a5.17,5.17,0,0,0,.48-1.22,5,5,0,0,0,.14-1.28,5.09,5.09,0,0,0-.19-1.29,5.77,5.77,0,0,0-.53-1.22l-.32-.52a2.9,2.9,0,0,0-1.38-1.21,2.71,2.71,0,0,0-.89-.22,2.84,2.84,0,0,0-.92.06l-32.83,7.78a1.83,1.83,0,0,1-.47,0,1.66,1.66,0,0,1-.45-.12,1.48,1.48,0,0,1-.71-.62Z" transform="translate(-435.34 -537.91)"/><g id="그룹_20" data-name="그룹 20"><path id="패스_42" data-name="패스 42" class="cls-2" d="M500.07,571l2.67-2.12a1.34,1.34,0,0,0,.45-1V549.08a1.12,1.12,0,0,0-1-1.24h-2.67a1.13,1.13,0,0,0-1,1.24v20.86C498.58,570.91,499.42,571.5,500.07,571Z" transform="translate(-435.34 -537.91)"/><path id="패스_43" data-name="패스 43" class="cls-2" d="M514.15,571l2.67-2.12a1.35,1.35,0,0,0,.46-1V549.08a1.13,1.13,0,0,0-1-1.24h-2.67a1.13,1.13,0,0,0-1,1.24v20.86C512.67,570.91,513.51,571.5,514.15,571Z" transform="translate(-435.34 -537.91)"/><path id="패스_44" data-name="패스 44" class="cls-2" d="M549.46,565.12l-3.15.62a1,1,0,0,1-.94-.3l-11.13-11.12a1,1,0,0,1-.06-1.42h0l1.89-1.89a1,1,0,0,1,1.42,0l12.38,12.39a1,1,0,0,1,.09,1.36A1,1,0,0,1,549.46,565.12Z" transform="translate(-435.34 -537.91)"/><path id="패스_45" data-name="패스 45" class="cls-2" d="M499.44,558.69l1.55,2.67a.91.91,0,0,0,.77.46H515.5a1,1,0,0,0,.91-1v-2.67a.94.94,0,0,0-.91-1H500.2a1,1,0,0,0-.91,1A.93.93,0,0,0,499.44,558.69Z" transform="translate(-435.34 -537.91)"/><path id="패스_46" data-name="패스 46" class="cls-2" d="M562.05,548.09l-9.74,9.74a1.48,1.48,0,0,0,0,2.1h0l9.74,9.75a1.48,1.48,0,0,0,2.1,0h0l9.75-9.75a1.48,1.48,0,0,0,0-2.1h0l-9.75-9.74a1.48,1.48,0,0,0-2.09,0Zm0,15.07-3.22-3.23a1.48,1.48,0,0,1,0-2.1h0l3.22-3.23a1.48,1.48,0,0,1,2.1,0h0l3.23,3.23a1.49,1.49,0,0,1,0,2.1h0l-3.23,3.23a1.47,1.47,0,0,1-2.09,0Z" transform="translate(-435.34 -537.91)"/><path id="패스_47" data-name="패스 47" class="cls-2" d="M532.33,548.09l-9.74,9.74a1.49,1.49,0,0,0,0,2.1h0l9.74,9.75a1.48,1.48,0,0,0,2.1,0h0l9.75-9.75a1.48,1.48,0,0,0,0-2.1h0l-9.75-9.74a1.49,1.49,0,0,0-2.1,0Zm0,15.07-3.23-3.23a1.48,1.48,0,0,1,0-2.1h0l3.23-3.23a1.48,1.48,0,0,1,2.1,0h0l3.23,3.23a1.48,1.48,0,0,1,0,2.1h0l-3.23,3.23a1.48,1.48,0,0,1-2.1,0Z" transform="translate(-435.34 -537.91)"/><path id="사각형_13" data-name="사각형 13" class="cls-2" d="M587.59,548h0a2.29,2.29,0,0,1,0,3.25l-4.82,4.83a2.31,2.31,0,0,1-3.26,0h0a2.31,2.31,0,0,1,0-3.26l4.82-4.82A2.31,2.31,0,0,1,587.59,548Z" transform="translate(-435.34 -537.91)"/><path id="사각형_14" data-name="사각형 14" class="cls-2" d="M591.62,561.68h0a2.31,2.31,0,0,1,0,3.26l-4.83,4.83a2.32,2.32,0,0,1-3.26,0h0a2.32,2.32,0,0,1,0-3.26l4.83-4.83A2.31,2.31,0,0,1,591.62,561.68Z" transform="translate(-435.34 -537.91)"/><path id="사각형_15" data-name="사각형 15" class="cls-2" d="M591.62,564.94h0a2.31,2.31,0,0,1-3.26,0l-8.85-8.86a2.31,2.31,0,0,1,0-3.26h0a2.31,2.31,0,0,1,3.26,0l8.85,8.86A2.31,2.31,0,0,1,591.62,564.94Z" transform="translate(-435.34 -537.91)"/></g></svg>