<svg id="레이어_1" data-name="레이어 1" xmlns="http://www.w3.org/2000/svg" xmlns:xlink="http://www.w3.org/1999/xlink" viewBox="0 0 133.85 120.36"><defs><style>.cls-1{fill:url(#무제_그라디언트_3);}.cls-2{fill:url(#무제_그라디언트_3-2);}.cls-3{fill:url(#무제_그라디언트_3-3);}.cls-4{fill:url(#무제_그라디언트_4);}</style><linearGradient id="무제_그라디언트_3" x1="10.95" y1="1083.87" x2="10.95" y2="1082.87" gradientTransform="matrix(70.6, 0, 0, -44.7, 494.76, 48560.55)" gradientUnits="userSpaceOnUse"><stop offset="0" stop-color="#3be4ff"/><stop offset="1" stop-color="#5a9ffc"/></linearGradient><linearGradient id="무제_그라디언트_3-2" x1="7.66" y1="1082.7" x2="7.66" y2="1081.7" gradientTransform="matrix(108.39, 0, 0, -75.51, 456.96, 81916.35)" xlink:href="#무제_그라디언트_3"/><linearGradient id="무제_그라디언트_3-3" x1="9.51" y1="1083.54" x2="9.51" y2="1082.54" gradientTransform="matrix(83.34, 0, 0, -50.46, 507.22, 54821.54)" xlink:href="#무제_그라디언트_3"/><linearGradient id="무제_그라디언트_4" x1="-51.24" y1="1079.3" x2="-51.24" y2="1078.3" gradientTransform="matrix(-12.65, 0, 0, 75.51, -641.89, -81376.73)" gradientUnits="userSpaceOnUse"><stop offset="0" stop-color="#3be4ff"/><stop offset="0" stop-color="#5a9ffc"/><stop offset="1" stop-color="#3be4ff"/></linearGradient></defs><g id="그룹_59" data-name="그룹 59"><path id="합치기_8" data-name="합치기 8" class="cls-1" d="M1291.28,160.42a.78.78,0,0,1-.78-.78h0V128.37h-45.3v21.76a.78.78,0,0,1-.78.78h-11.09a.78.78,0,0,1-.78-.78V116.5a.78.78,0,0,1,.78-.78h69a.78.78,0,0,1,.75.59.63.63,0,0,1,0,.19v43.14a.78.78,0,0,1-.78.78h-11.09Z" transform="translate(-1207.25 -115.72)"/><path id="합치기_6" data-name="합치기 6" class="cls-2" d="M1233.32,236.09a.77.77,0,0,1-.77-.78h0v-74a.76.76,0,0,1,.77-.77h11.1a.77.77,0,0,1,.78.77v49.43h95a.78.78,0,0,1,.78.78v23.75a.78.78,0,0,1-.78.78Z" transform="translate(-1207.25 -115.72)"/><path id="합치기_7" data-name="합치기 7" class="cls-3" d="M1316.57,198.23h-58a.78.78,0,0,1-.78-.78V173.7a.78.78,0,0,1,.78-.78h57.27V148.55a.77.77,0,0,1,.77-.78h23.75a.78.78,0,0,1,.78.77h0v48.9a.77.77,0,0,1-.78.77h-23.75Z" transform="translate(-1207.25 -115.72)"/><rect id="사각형_190" data-name="사각형 190" class="cls-4" y="44.85" width="12.65" height="75.51" rx="0.78"/></g></svg>