<svg id="레이어_1" data-name="레이어 1" xmlns="http://www.w3.org/2000/svg" xmlns:xlink="http://www.w3.org/1999/xlink" viewBox="0 0 149.63 134.37"><defs><style>.cls-1{fill:url(#무제_그라디언트_33);}</style><linearGradient id="무제_그라디언트_33" x1="380.99" y1="195.31" x2="530.62" y2="195.31" gradientUnits="userSpaceOnUse"><stop offset="0" stop-color="#3be4ff"/><stop offset="1" stop-color="#5a9ffc"/></linearGradient></defs><path id="패스_23" data-name="패스 23" class="cls-1" d="M406.36,200.55a10.85,10.85,0,0,1-1.57-5.32,10.43,10.43,0,0,1,.28-2.73,10,10,0,0,1,1-2.58l19-34.81a10.21,10.21,0,0,1,6.31-5,10.33,10.33,0,0,1,2.77-.37l40.29.09a10.62,10.62,0,0,1,2.8.38,11.31,11.31,0,0,1,2.59,1.07,11.19,11.19,0,0,1,4,3.95l8.48,14.52a4.84,4.84,0,0,0,2.27,2,4.63,4.63,0,0,0,1.46.38,4.92,4.92,0,0,0,1.53-.1l12.3-2.93a4.58,4.58,0,0,0,3.17-2.71,4.63,4.63,0,0,0,.34-2.08,4.75,4.75,0,0,0-.66-2.14l-15.38-26.09a16.35,16.35,0,0,0-5.92-5.82,16.17,16.17,0,0,0-8-2.14l-59.4,0A15.13,15.13,0,0,0,410.73,136l-27.89,51.27a15.37,15.37,0,0,0-1.45,3.8,15.92,15.92,0,0,0,.23,8,16.38,16.38,0,0,0,1.69,3.8l5.68,9.46L414.08,254a16.3,16.3,0,0,0,5.84,5.74,15.7,15.7,0,0,0,3.76,1.58,16.06,16.06,0,0,0,4.07.58l58.87.56a16,16,0,0,0,4.08-.5,15.07,15.07,0,0,0,9.33-7.2l28.62-51.06a14.7,14.7,0,0,0,1.51-3.83,15.27,15.27,0,0,0,.45-4,15.89,15.89,0,0,0-.61-4.06,16.27,16.27,0,0,0-1.67-3.85l-1-1.65a9.41,9.41,0,0,0-4.37-3.83,9.59,9.59,0,0,0-2.79-.69,9,9,0,0,0-2.93.21L413.77,206.51a4.4,4.4,0,0,1-1.49.1,4.63,4.63,0,0,1-1.43-.36,4.91,4.91,0,0,1-2.24-2Z" transform="translate(-380.99 -128.13)"/></svg>