<svg id="레이어_1" data-name="레이어 1" xmlns="http://www.w3.org/2000/svg" xmlns:xlink="http://www.w3.org/1999/xlink" viewBox="0 0 329.38 230.95"><defs><style>.cls-1{fill:#54adfd;}.cls-2{fill:url(#무제_그라디언트_3);}.cls-3{fill:url(#무제_그라디언트_3-2);}.cls-4{fill:url(#무제_그라디언트_3-3);}.cls-5{fill:url(#무제_그라디언트_4);}</style><linearGradient id="무제_그라디언트_3" x1="9.57" y1="1085.1" x2="9.57" y2="1084.1" gradientTransform="matrix(70.6, 0, 0, -44.7, 592.52, 48560.55)" gradientUnits="userSpaceOnUse"><stop offset="0" stop-color="#3be4ff"/><stop offset="1" stop-color="#5a9ffc"/></linearGradient><linearGradient id="무제_그라디언트_3-2" x1="6.75" y1="1083.43" x2="6.75" y2="1082.43" gradientTransform="matrix(108.39, 0, 0, -75.51, 554.73, 81916.35)" xlink:href="#무제_그라디언트_3"/><linearGradient id="무제_그라디언트_3-3" x1="8.33" y1="1084.64" x2="8.33" y2="1083.64" gradientTransform="matrix(83.34, 0, 0, -50.46, 604.98, 54821.54)" xlink:href="#무제_그라디언트_3"/><linearGradient id="무제_그라디언트_4" x1="-43.51" y1="1078.57" x2="-43.51" y2="1077.57" gradientTransform="matrix(-12.65, 0, 0, 75.51, -446.36, -81321.44)" gradientUnits="userSpaceOnUse"><stop offset="0" stop-color="#3be4ff"/><stop offset="0" stop-color="#5a9ffc"/><stop offset="1" stop-color="#3be4ff"/></linearGradient></defs><g id="그룹_53" data-name="그룹 53"><rect id="사각형_118" data-name="사각형 118" class="cls-1" y="171.8" width="8" height="58.87" rx="0.78"/><rect id="사각형_119" data-name="사각형 119" class="cls-1" x="30.51" y="203.06" width="8" height="27.6" rx="0.78"/><rect id="사각형_120" data-name="사각형 120" class="cls-1" x="30.51" y="171.15" width="8" height="26.69" rx="0.78"/><rect id="사각형_121" data-name="사각형 121" class="cls-1" x="55.83" y="172.09" width="8" height="58.87" rx="0.78"/><rect id="사각형_122" data-name="사각형 122" class="cls-1" x="210.68" y="173.56" width="8" height="57.1" rx="0.78"/><rect id="사각형_123" data-name="사각형 123" class="cls-1" x="196.54" y="171.83" width="36.29" height="8" rx="0.78"/><rect id="사각형_124" data-name="사각형 124" class="cls-1" x="246.54" y="171.9" width="33.99" height="8" rx="0.78"/><rect id="사각형_125" data-name="사각형 125" class="cls-1" x="272.53" y="173.56" width="8" height="55" rx="0.78"/><rect id="사각형_126" data-name="사각형 126" class="cls-1" x="246.54" y="221.26" width="33.99" height="8" rx="0.78"/><rect id="사각형_127" data-name="사각형 127" class="cls-1" x="246.54" y="174.26" width="8" height="55" rx="0.78"/><rect id="사각형_128" data-name="사각형 128" class="cls-1" x="295.39" y="171.9" width="33.99" height="8" rx="0.78"/><rect id="사각형_129" data-name="사각형 129" class="cls-1" x="321.37" y="174.2" width="8" height="55" rx="0.78"/><rect id="사각형_130" data-name="사각형 130" class="cls-1" x="295.39" y="174.26" width="8" height="55" rx="0.78"/><rect id="사각형_131" data-name="사각형 131" class="cls-1" x="115.71" y="193.01" width="8" height="37.95" rx="0.78"/><rect id="사각형_132" data-name="사각형 132" class="cls-1" x="101.57" y="193.01" width="36.29" height="8" rx="0.78"/><rect id="사각형_133" data-name="사각형 133" class="cls-1" x="101.57" y="171.5" width="8" height="27.84" rx="0.78"/><rect id="사각형_134" data-name="사각형 134" class="cls-1" x="129.85" y="171.15" width="8" height="27.84" rx="0.78"/><rect id="사각형_135" data-name="사각형 135" class="cls-1" x="11.88" y="191.34" width="26.63" height="8" rx="0.78"/><rect id="사각형_136" data-name="사각형 136" class="cls-1" x="11.88" y="203.06" width="26.63" height="8" rx="0.78"/><rect id="사각형_137" data-name="사각형 137" class="cls-1" x="55.83" y="172.12" width="34.24" height="8" rx="0.78"/><rect id="사각형_138" data-name="사각형 138" class="cls-1" x="82.84" y="172.12" width="8" height="28.75" rx="0.78"/><rect id="사각형_139" data-name="사각형 139" class="cls-1" x="56.59" y="193.2" width="34.24" height="8" rx="0.78"/><rect id="사각형_140" data-name="사각형 140" class="cls-1" x="148.58" y="171.8" width="8" height="58.87" rx="0.78"/><rect id="사각형_141" data-name="사각형 141" class="cls-1" x="148.58" y="171.83" width="34.24" height="8" rx="0.78"/><rect id="사각형_142" data-name="사각형 142" class="cls-1" x="175.59" y="171.83" width="8" height="28.75" rx="0.78"/><rect id="사각형_143" data-name="사각형 143" class="cls-1" x="149.34" y="192.91" width="34.24" height="8" rx="0.78"/><rect id="사각형_144" data-name="사각형 144" class="cls-1" x="81.15" y="205.07" width="8" height="25.89" rx="0.78"/></g><g id="그룹_59" data-name="그룹 59"><path id="합치기_8" data-name="합치기 8" class="cls-2" d="M1291.28,105.12a.77.77,0,0,1-.78-.77h0V73.08h-45.3V94.83a.78.78,0,0,1-.78.78h-11.09a.78.78,0,0,1-.78-.78V61.21a.78.78,0,0,1,.78-.78h69a.78.78,0,0,1,.75.58.64.64,0,0,1,0,.2v43.14a.77.77,0,0,1-.78.77h-11.09Z" transform="translate(-1109.48 -60.43)"/><path id="합치기_6" data-name="합치기 6" class="cls-3" d="M1233.32,180.79a.77.77,0,0,1-.77-.78h0V106.06a.77.77,0,0,1,.77-.78h11.1a.78.78,0,0,1,.78.78v49.43h95a.78.78,0,0,1,.78.78V180a.78.78,0,0,1-.78.78Z" transform="translate(-1109.48 -60.43)"/><path id="합치기_7" data-name="합치기 7" class="cls-4" d="M1316.57,142.93h-58a.78.78,0,0,1-.78-.78V118.41a.78.78,0,0,1,.78-.78h57.27V93.25a.77.77,0,0,1,.77-.78h23.75a.78.78,0,0,1,.78.78h0v48.9a.78.78,0,0,1-.78.78h-23.75Z" transform="translate(-1109.48 -60.43)"/><rect id="사각형_190" data-name="사각형 190" class="cls-5" x="97.77" y="44.85" width="12.65" height="75.51" rx="0.78"/></g></svg>