<svg id="레이어_1" data-name="레이어 1" xmlns="http://www.w3.org/2000/svg" viewBox="0 0 24.6 23.2"><defs><style>.cls-1{fill:none;stroke:#3d3d3d;stroke-miterlimit:10;stroke-width:2px;}</style></defs><path id="패스_122" data-name="패스 122" class="cls-1" d="M479.71,301.09l-2.5-1.44a.59.59,0,0,1-.29-.5v-2.9a1.6,1.6,0,0,0-.6-1.28,11.26,11.26,0,0,0-2.79-1.61,1.6,1.6,0,0,0-1.41.13l-2.5,1.44a.6.6,0,0,1-.58,0l-2.5-1.44a1.59,1.59,0,0,0-1.41-.13,11.26,11.26,0,0,0-2.79,1.61,1.66,1.66,0,0,0-.6,1.28v2.9a.59.59,0,0,1-.29.5l-2.5,1.44a1.61,1.61,0,0,0-.81,1.15,11.65,11.65,0,0,0,0,3.23,1.63,1.63,0,0,0,.81,1.15l2.5,1.44a.57.57,0,0,1,.29.5v2.89a1.68,1.68,0,0,0,.6,1.29,11.58,11.58,0,0,0,2.79,1.61,1.63,1.63,0,0,0,1.41-.13l2.5-1.44a.6.6,0,0,1,.58,0l2.5,1.44a1.63,1.63,0,0,0,1.41.13,11.58,11.58,0,0,0,2.79-1.61,1.62,1.62,0,0,0,.6-1.29v-2.89a.57.57,0,0,1,.29-.5l2.5-1.44a1.63,1.63,0,0,0,.81-1.15,11.65,11.65,0,0,0,0-3.23A1.61,1.61,0,0,0,479.71,301.09ZM470,307.22a3.43,3.43,0,1,1,2.69-4,3.36,3.36,0,0,1,0,1.34A3.43,3.43,0,0,1,470,307.22Z" transform="translate(-457.03 -292.25)"/></svg>