<svg id="레이어_1" data-name="레이어 1" xmlns="http://www.w3.org/2000/svg" viewBox="0 0 22.33 21.37"><defs><style>.cls-1{fill:none;stroke:#3d3d3d;stroke-miterlimit:10;stroke-width:2px;}</style></defs><path id="패스_41" data-name="패스 41" class="cls-1" d="M731.12,350.86l2.28,7a.18.18,0,0,0,.17.13H741a.17.17,0,0,1,.1.31l-6,4.34a.17.17,0,0,0-.06.2l2.28,7a.19.19,0,0,1-.11.23.16.16,0,0,1-.16,0l-6-4.33a.17.17,0,0,0-.21,0l-6,4.33a.17.17,0,0,1-.24,0,.17.17,0,0,1,0-.17l2.28-7a.17.17,0,0,0-.07-.2l-6-4.34a.17.17,0,0,1,0-.24A.15.15,0,0,1,721,358h7.38a.18.18,0,0,0,.17-.13l2.28-7a.17.17,0,0,1,.21-.12A.15.15,0,0,1,731.12,350.86Z" transform="translate(-719.79 -349.73)"/></svg>