<svg id="레이어_1" data-name="레이어 1" xmlns="http://www.w3.org/2000/svg" viewBox="0 0 26 22"><defs><style>.cls-1{fill:none;stroke:#3d3d3d;stroke-miterlimit:10;stroke-width:2px;}.cls-2{fill:#3d3d3d;}</style></defs><g id="그룹_70" data-name="그룹 70"><rect id="사각형_201" data-name="사각형 201" class="cls-1" x="1" y="1" width="24" height="20" rx="0.84"/><path id="패스_120" data-name="패스 120" class="cls-1" d="M771.94,378.77l-4.24,7.79a.74.74,0,0,1-1.35,0l-2.35-4a.71.71,0,0,0-1-.36.76.76,0,0,0-.37.36l-4.38,7.51c-.41.72,0,1.75.67,1.75h19.83c.67,0,1.07-1,.68-1.72l-6.17-11.33a.74.74,0,0,0-1-.4A.71.71,0,0,0,771.94,378.77Z" transform="translate(-755.34 -370.82)"/><circle id="타원_33" data-name="타원 33" class="cls-2" cx="7" cy="6.5" r="2"/></g></svg>
